<svg xmlns="http://www.w3.org/2000/svg" width="1650.03" height="146" viewBox="0 0 1650.03 146">
  <defs>
    <style>
      .cls-1 {
        fill: #f8f8f8;
        fill-rule: evenodd;
      }
    </style>
  </defs>
  <path id="LOGO" class="cls-1" d="M1352.5,16.939h-5.33l17.2,46.666h6.4l17.2-46.666h-5.4l-14.07,36a14.84,14.84,0,0,0-.4,4.867h-1c0-1.467.13-3.467-.47-4.867Zm39.13,46.6h5.8l6.2-16.8h18.4l6.74,16.8h5.66l-18.2-46.733h-6.93Zm29.14-21.333h-16l7.2-17.866c0.46-1.067.26-2.667,0.26-3.867h1c0,1.2-.2,2.8.27,3.867Zm41.13,22.4c10.8,0,19.2-5.933,20.67-15.2h-5.27c-1.53,6-6.47,10.533-15.4,10.533-10.53,0-17.73-9.4-17.73-19.733,0-10.266,7.13-19.6,17.53-19.6,8.87,0,13.73,4.533,15.27,10.467h5.26c-1.46-9.2-9.8-15.133-20.53-15.133-12.93,0-22.46,10.4-22.53,24.266C1439.24,54.138,1448.84,64.6,1461.9,64.6Zm52.07,0c10.8,0,19.2-5.933,20.66-15.2h-5.26c-1.54,6-6.47,10.533-15.4,10.533-10.54,0-17.74-9.4-17.74-19.733,0-10.266,7.14-19.6,17.54-19.6,8.86,0,13.73,4.533,15.26,10.467h5.27c-1.47-9.2-9.8-15.133-20.53-15.133-12.94,0-22.47,10.4-22.54,24.266C1491.3,54.138,1500.9,64.6,1513.97,64.6Zm32.33-1h5V16.939h-5V63.6Zm25.33-33.133c0-2.933-1.06-6.533-1.93-9.333l0.93-.333a33.373,33.373,0,0,0,3.8,8.733l24.4,34.066h5V16.939h-5v33.2c0,2.933,1.07,6.533,1.94,9.333l-0.94.267a34.69,34.69,0,0,0-3.8-8.733l-24.4-34.066h-5V63.6h5V30.472ZM1619.17,63.6h30.86V59.072h-25.86V41.739h23.86V37.205h-23.86V21.472h25.53V16.939h-30.53V63.6Zm-248.6,81c10.8,0,19.2-5.933,20.66-15.2h-5.26c-1.54,6-6.47,10.533-15.4,10.533-10.54,0-17.74-9.4-17.74-19.733,0-10.266,7.14-19.6,17.54-19.6,8.86,0,13.73,4.534,15.26,10.467h5.27c-1.47-9.2-9.8-15.133-20.53-15.133-12.94,0-22.47,10.4-22.54,24.266C1347.9,134.138,1357.5,144.6,1370.57,144.6Zm32.33-1h30.87v-4.533H1407.9V121.738h23.87v-4.533H1407.9V101.472h25.53V96.939H1402.9V143.6Zm48.2-33.133c0-2.933-1.07-6.533-1.93-9.333l0.93-.334c0.87,2.8,2.13,6.4,3.8,8.734l24.4,34.066h5V96.939h-5v33.2c0,2.934,1.07,6.534,1.93,9.334l-0.93.266a35.059,35.059,0,0,0-3.8-8.733l-24.4-34.066h-5V143.6h5V110.472Zm58.4,33.133V101.472h13.87V96.939h-32.74v4.533h13.87V143.6h5Zm25.53,0h30.87v-4.533h-25.87V121.738h23.87v-4.533h-23.87V101.472h25.54V96.939h-30.54V143.6Zm66.6-20.933c-1.33-.667-3.4-0.334-4.93-0.334v-1c1.53,0,3.47.2,4.93-.333,4.87-1.8,8.67-4.333,8.67-11,0-10.933-8.2-13.066-18.07-13.066h-14V143.6h5V124.072c3.27,0.066,6.54.066,8.27,0.066h1.8c2.73,0.134,7.8.8,10.07,8.334,0.26,0.933,1.53,5.266,3.13,11.133h4.93s-2.8-9-3.53-11.667C1606.43,126.672,1604.17,123.938,1601.63,122.672Zm-18.4-20.933h9c7.34,0,13.07.066,13.07,8.4,0,8.666-6.27,9.266-13.07,9.266h-9V101.739ZM25.95,62.363c0-8.8-4-19.4-6.8-27.6l4.2-1.6c2.8,8.4,6,19.2,11.4,26.2l63.8,84.4h26.2v-140h-26.2v81.6c0,8.8,4,19.4,6.8,27.6l-4.4,1.4c-2.8-8.2-6-19.2-11.2-26l-63.8-84.6h-26.2v140h26.2v-81.4Zm258.8-58.6h-26.2v84c0.2,18.2-15,34.4-35.6,34.4a35.186,35.186,0,0,1-35.6-34.4v-84h-26.2s-0.2,49.8-.2,91.4c0.2,33.4,27,51.6,62,51.6,34.8,0,62-18.2,61.8-51.6V3.764Zm149.4,22c-14.2-15.2-32.8-25-56.6-25-33,0-60,14.6-60,38,0,43.4,88.6,40,88.6,66.8,0,9.8-11.2,16.8-30,16.8-20.6,0-32.8-6.2-42-18.6l-19.8,12.8c14.8,20.2,31.8,30.2,58.4,30.2,37.8,0,65.4-15.8,65.4-42.2,0-49.6-92.2-47-92.2-67.2,0-9.4,12.4-14.8,25.8-14.8,19.4,0,33.4,6.2,42.6,16.4Zm17.8,117.8h27.6l17.2-48.8h44.6l18.8,48.8h27.4l-54-140.2h-30Zm86.2-68.4h-39l16.4-37.2c1.8-4.2.8-10,.8-14.4h4.6c0,4.4-1,10.2.8,14.4Zm96.6-12.8c0-8.8-4-19.4-6.8-27.6l4.2-1.6c2.8,8.4,6,19.2,11.4,26.2l63.8,84.4h26.2v-140h-26.2v81.6c0,8.8,4,19.4,6.8,27.6l-4.4,1.4c-2.8-8.2-6-19.2-11.2-26l-63.8-84.6h-26.2v140h26.2v-81.4Zm190.6,81.4V28.163h37.4V3.764h-101v24.4h37.4v115.6h26.2Zm50.8-.2h27.6l17.2-48.8h44.6l18.8,48.8h27.4l-54-140.2h-30Zm86.2-68.4h-39l16.4-37.2c1.8-4.2.8-10,.8-14.4h4.6c0,4.4-1,10.2.8,14.4Zm159.593,7.6c-6-4-16.2-2-23.4-2v-4.6c7.2,0,16.8,1.2,23.4-1.8,12.6-5.4,22-13.4,22-31.4,0-32.8-26-39.2-57.4-39.2h-49.99v140h25.39v-54h22.2c7.4,0.4,21.4-2,27.8,20.6,0.6,2.8,4,15.8,8.4,33.4h27s-8.8-27-10.6-35C1133.53,96.162,1129.93,87.563,1121.93,82.763Zm-60-61.6h22.6c18.6,0,33.2,4.6,33.2,22.2,0,17.8-15.8,24.8-33.2,24.8h-22.6v-47Zm98.6,122.4h27.6l17.2-48.8h44.6l18.8,48.8h27.4l-54-140.2h-30Zm86.2-68.4h-39l16.4-37.2c1.8-4.2.8-10,.8-14.4h4.6c0,4.4-1,10.2.8,14.4Z" transform="translate(0 -0.75)"/>
</svg>
